<svg xmlns="http://www.w3.org/2000/svg" viewBox="0 0 48 48" width="48" height="48">
  <!-- Excel document background -->
  <path fill="#219653" d="M41,10H25V7c0-1.7-1.3-3-3-3H7C5.3,4,4,5.3,4,7v34c0,1.7,1.3,3,3,3h34c1.7,0,3-1.3,3-3V13C44,11.3,42.7,10,41,10z"/>
  
  <!-- Excel document fold -->
  <path fill="#2ECC71" d="M25,10l12,12H25V10z"/>
  
  <!-- Excel logo "X" -->
  <path fill="#fff" d="M31.2,24l3.6-3.6c0.4-0.4,0.4-1,0-1.4l-1.4-1.4c-0.4-0.4-1-0.4-1.4,0L28.4,21l-3.6-3.6c-0.4-0.4-1-0.4-1.4,0l-1.4,1.4c-0.4,0.4-0.4,1,0,1.4l3.6,3.6l-3.6,3.6c-0.4,0.4-0.4,1,0,1.4l1.4,1.4c0.4,0.4,1,0.4,1.4,0l3.6-3.6l3.6,3.6c0.4,0.4,1,0.4,1.4,0l1.4-1.4c0.4-0.4,0.4-1,0-1.4L31.2,24z"/>
  
  <!-- Excel logo grid lines -->
  <path fill="#fff" d="M14,18h8v3h-8V18z M14,24h8v3h-8V24z M14,30h8v3h-8V30z M23,18h8v3h-8V18z M23,24h8v3h-8V24z M23,30h8v3h-8V30z" opacity="0.2"/>
</svg>
