<svg width="48" height="48" viewBox="0 0 24 24" xmlns="http://www.w3.org/2000/svg">
    <!-- Branches -->
    <path d="M7 5C7 3.895 7.895 3 9 3H15C16.105 3 17 3.895 17 5V10C17 11.105 16.105 12 15 12H9C7.895 12 7 11.105 7 10V5Z" fill="#e3f2fd" stroke="#2196f3"/>
    <path d="M7 14C7 12.895 7.895 12 9 12H15C16.105 12 17 12.895 17 14V19C17 20.105 16.105 21 15 21H9C7.895 21 7 20.105 7 19V14Z" fill="#e8f5e9" stroke="#4caf50"/>
    <!-- Merge line -->
    <path d="M12 12V19" stroke="#ff9800" stroke-width="2"/>
    <circle cx="12" cy="12" r="2" fill="#ff9800"/>
</svg>
