<svg xmlns="http://www.w3.org/2000/svg" viewBox="0 0 48 48" width="48" height="48">
  <!-- PDF document background -->
  <path fill="#E53935" d="M41,10H25V7c0-1.7-1.3-3-3-3H7C5.3,4,4,5.3,4,7v34c0,1.7,1.3,3,3,3h34c1.7,0,3-1.3,3-3V13C44,11.3,42.7,10,41,10z"/>
  
  <!-- PDF document fold -->
  <path fill="#EF5350" d="M25,10l12,12H25V10z"/>
  
  <!-- PDF letters -->
  <path fill="#fff" d="M16.5,25.5h1.6v1.6h-1.6V25.5z M16.5,28.7h1.6v5.1h-1.6V28.7z M20.2,25.5h2.5c1.2,0,2.1,0.9,2.1,2.1v0 c0,1.2-0.9,2.1-2.1,2.1h-0.9v3h-1.6V25.5z M20.2,28.7h0.9c0.3,0,0.5-0.2,0.5-0.5v0c0-0.3-0.2-0.5-0.5-0.5h-0.9V28.7z M26.8,25.5h1.6 v5.1h3.2v1.6h-4.8V25.5z"/>
  
  <!-- Document lines -->
  <rect x="14" y="18" fill="#fff" opacity="0.2" width="20" height="2"/>
  <rect x="14" y="22" fill="#fff" opacity="0.2" width="15" height="2"/>
</svg>
